<mxfile host="app.diagrams.net" modified="2021-07-03T04:14:17.155Z" agent="5.0 (Windows NT 10.0; Win64; x64) AppleWebKit/537.36 (KHTML, like Gecko) Chrome/91.0.4472.114 Safari/537.36" etag="L8ROUVAmyxf1KGLogSW5" version="14.8.3" type="github">
  <diagram id="2rnhTk_CUh4Y62Cs5DJs" name="Page-1">
    <mxGraphModel dx="1019" dy="456" grid="1" gridSize="10" guides="1" tooltips="1" connect="1" arrows="1" fold="1" page="1" pageScale="1" pageWidth="827" pageHeight="1169" math="0" shadow="0">
      <root>
        <mxCell id="0" />
        <mxCell id="1" parent="0" />
        <mxCell id="J5iCN7HABDpWgJtPhztJ-2" value="&lt;font style=&quot;font-size: 20px&quot;&gt;STOP&lt;/font&gt;" style="ellipse;whiteSpace=wrap;html=1;" parent="1" vertex="1">
          <mxGeometry x="160" y="475" width="100" height="95" as="geometry" />
        </mxCell>
        <mxCell id="J5iCN7HABDpWgJtPhztJ-7" value="" style="endArrow=classic;html=1;entryX=0.5;entryY=0;entryDx=0;entryDy=0;exitX=0.027;exitY=0.619;exitDx=0;exitDy=0;curved=1;exitPerimeter=0;" parent="1" source="TxeS7D_PVPmR740Y7BxE-22" target="TxeS7D_PVPmR740Y7BxE-23" edge="1">
          <mxGeometry width="50" height="50" relative="1" as="geometry">
            <mxPoint x="420" y="440" as="sourcePoint" />
            <mxPoint x="260" y="430" as="targetPoint" />
            <Array as="points">
              <mxPoint x="261" y="560" />
            </Array>
          </mxGeometry>
        </mxCell>
        <mxCell id="J5iCN7HABDpWgJtPhztJ-8" value="" style="endArrow=classic;html=1;entryX=0.5;entryY=0;entryDx=0;entryDy=0;exitX=1;exitY=0;exitDx=0;exitDy=0;curved=1;" parent="1" source="TxeS7D_PVPmR740Y7BxE-7" target="TxeS7D_PVPmR740Y7BxE-8" edge="1">
          <mxGeometry width="50" height="50" relative="1" as="geometry">
            <mxPoint x="541.0035931288072" y="545.0042712474617" as="sourcePoint" />
            <mxPoint x="455.85640687119275" y="465.0042712474618" as="targetPoint" />
            <Array as="points">
              <mxPoint x="611" y="350" />
            </Array>
          </mxGeometry>
        </mxCell>
        <mxCell id="J5iCN7HABDpWgJtPhztJ-9" value="" style="endArrow=classic;html=1;entryX=0;entryY=0.5;entryDx=0;entryDy=0;curved=1;exitX=0.5;exitY=0;exitDx=0;exitDy=0;" parent="1" source="J5iCN7HABDpWgJtPhztJ-2" target="TxeS7D_PVPmR740Y7BxE-7" edge="1">
          <mxGeometry width="50" height="50" relative="1" as="geometry">
            <mxPoint x="270" y="360" as="sourcePoint" />
            <mxPoint x="377.57359312880726" y="371.7157287525381" as="targetPoint" />
            <Array as="points">
              <mxPoint x="240" y="390" />
            </Array>
          </mxGeometry>
        </mxCell>
        <mxCell id="J5iCN7HABDpWgJtPhztJ-11" value="&lt;font style=&quot;font-size: 15px&quot;&gt;flick = 1&lt;/font&gt;" style="text;html=1;align=center;verticalAlign=middle;resizable=0;points=[];autosize=1;strokeColor=none;rotation=-35;" parent="1" vertex="1">
          <mxGeometry x="200" y="400" width="70" height="20" as="geometry" />
        </mxCell>
        <mxCell id="J5iCN7HABDpWgJtPhztJ-14" value="&lt;span style=&quot;color: rgb(0 , 0 , 0) ; font-family: &amp;#34;helvetica&amp;#34; ; font-size: 15px ; font-style: normal ; font-weight: 400 ; letter-spacing: normal ; text-align: center ; text-indent: 0px ; text-transform: none ; word-spacing: 0px ; background-color: rgb(248 , 249 , 250) ; display: inline ; float: none&quot;&gt;next_led = 16&#39;d31&lt;/span&gt;" style="text;whiteSpace=wrap;html=1;rotation=0;" parent="1" vertex="1">
          <mxGeometry x="205" y="615" width="130" height="30" as="geometry" />
        </mxCell>
        <mxCell id="TxeS7D_PVPmR740Y7BxE-3" value="" style="endArrow=classic;html=1;exitX=0.5;exitY=1;exitDx=0;exitDy=0;curved=1;entryX=1;entryY=0.5;entryDx=0;entryDy=0;" parent="1" source="TxeS7D_PVPmR740Y7BxE-22" target="TxeS7D_PVPmR740Y7BxE-10" edge="1">
          <mxGeometry width="50" height="50" relative="1" as="geometry">
            <mxPoint x="548.5735931288073" y="808.2842712474617" as="sourcePoint" />
            <mxPoint x="373" y="830" as="targetPoint" />
            <Array as="points">
              <mxPoint x="451" y="760" />
            </Array>
          </mxGeometry>
        </mxCell>
        <mxCell id="TxeS7D_PVPmR740Y7BxE-4" value="" style="endArrow=classic;html=1;curved=1;entryX=0.002;entryY=0.64;entryDx=0;entryDy=0;entryPerimeter=0;exitX=0;exitY=0;exitDx=0;exitDy=0;" parent="1" source="TxeS7D_PVPmR740Y7BxE-23" target="J5iCN7HABDpWgJtPhztJ-2" edge="1">
          <mxGeometry width="50" height="50" relative="1" as="geometry">
            <mxPoint x="20.996406871192733" y="611.7157287525383" as="sourcePoint" />
            <mxPoint x="196" y="590" as="targetPoint" />
            <Array as="points">
              <mxPoint x="111" y="580" />
            </Array>
          </mxGeometry>
        </mxCell>
        <mxCell id="TxeS7D_PVPmR740Y7BxE-5" value="&lt;font style=&quot;font-size: 15px&quot;&gt;next_led = 16&#39;d2047&lt;br&gt;&lt;br&gt;&lt;/font&gt;" style="text;html=1;align=center;verticalAlign=middle;resizable=0;points=[];autosize=1;strokeColor=none;rotation=60;" parent="1" vertex="1">
          <mxGeometry x="441" y="660" width="150" height="30" as="geometry" />
        </mxCell>
        <mxCell id="TxeS7D_PVPmR740Y7BxE-6" value="&lt;span style=&quot;color: rgb(0 , 0 , 0) ; font-family: &amp;#34;helvetica&amp;#34; ; font-size: 15px ; font-style: normal ; font-weight: 400 ; letter-spacing: normal ; text-align: center ; text-indent: 0px ; text-transform: none ; word-spacing: 0px ; background-color: rgb(248 , 249 , 250) ; display: inline ; float: none&quot;&gt;flick = 1&lt;br&gt;&lt;br&gt;&lt;/span&gt;" style="text;whiteSpace=wrap;html=1;rotation=-60;" parent="1" vertex="1">
          <mxGeometry x="361" y="704.5" width="120" height="30" as="geometry" />
        </mxCell>
        <mxCell id="TxeS7D_PVPmR740Y7BxE-7" value="&lt;font style=&quot;font-size: 20px&quot;&gt;UP6&lt;/font&gt;" style="ellipse;whiteSpace=wrap;html=1;" parent="1" vertex="1">
          <mxGeometry x="335" y="350" width="100" height="95" as="geometry" />
        </mxCell>
        <mxCell id="TxeS7D_PVPmR740Y7BxE-8" value="&lt;font style=&quot;font-size: 20px&quot;&gt;DOWN6&lt;/font&gt;" style="ellipse;whiteSpace=wrap;html=1;" parent="1" vertex="1">
          <mxGeometry x="601" y="530" width="100" height="95" as="geometry" />
        </mxCell>
        <mxCell id="TxeS7D_PVPmR740Y7BxE-9" value="&lt;span style=&quot;font-size: 20px&quot;&gt;UP11&lt;/span&gt;" style="ellipse;whiteSpace=wrap;html=1;" parent="1" vertex="1">
          <mxGeometry x="511" y="730" width="100" height="95" as="geometry" />
        </mxCell>
        <mxCell id="TxeS7D_PVPmR740Y7BxE-10" value="&lt;span style=&quot;font-size: 20px&quot;&gt;DOWN11&lt;/span&gt;" style="ellipse;whiteSpace=wrap;html=1;" parent="1" vertex="1">
          <mxGeometry x="271" y="760" width="100" height="95" as="geometry" />
        </mxCell>
        <mxCell id="TxeS7D_PVPmR740Y7BxE-11" value="" style="endArrow=classic;html=1;entryX=1.015;entryY=0.622;entryDx=0;entryDy=0;entryPerimeter=0;curved=1;exitX=1;exitY=1;exitDx=0;exitDy=0;" parent="1" source="TxeS7D_PVPmR740Y7BxE-8" target="TxeS7D_PVPmR740Y7BxE-9" edge="1">
          <mxGeometry width="50" height="50" relative="1" as="geometry">
            <mxPoint x="786.14" y="770" as="sourcePoint" />
            <mxPoint x="620.9964068711928" y="695.0042712474618" as="targetPoint" />
            <Array as="points">
              <mxPoint x="691" y="720" />
            </Array>
          </mxGeometry>
        </mxCell>
        <mxCell id="TxeS7D_PVPmR740Y7BxE-13" value="&lt;font style=&quot;font-size: 15px&quot;&gt;next_led = 16&#39;d63&lt;/font&gt;" style="text;html=1;align=center;verticalAlign=middle;resizable=0;points=[];autosize=1;strokeColor=none;rotation=30;" parent="1" vertex="1">
          <mxGeometry x="481" y="410" width="130" height="20" as="geometry" />
        </mxCell>
        <mxCell id="TxeS7D_PVPmR740Y7BxE-15" value="&lt;font style=&quot;font-size: 15px&quot;&gt;next_led = 16&#39;d0&lt;/font&gt;" style="text;html=1;align=center;verticalAlign=middle;resizable=0;points=[];autosize=1;strokeColor=none;rotation=105;" parent="1" vertex="1">
          <mxGeometry x="611" y="705" width="130" height="20" as="geometry" />
        </mxCell>
        <mxCell id="TxeS7D_PVPmR740Y7BxE-22" value="&lt;span style=&quot;font-size: 20px&quot;&gt;DOWN&lt;br&gt;EXTRA&lt;/span&gt;" style="ellipse;whiteSpace=wrap;html=1;" parent="1" vertex="1">
          <mxGeometry x="371" y="580" width="100" height="95" as="geometry" />
        </mxCell>
        <mxCell id="TxeS7D_PVPmR740Y7BxE-23" value="&lt;span style=&quot;font-size: 20px&quot;&gt;UP16&lt;/span&gt;" style="ellipse;whiteSpace=wrap;html=1;" parent="1" vertex="1">
          <mxGeometry x="131" y="645" width="100" height="95" as="geometry" />
        </mxCell>
        <mxCell id="TxeS7D_PVPmR740Y7BxE-24" value="" style="endArrow=classic;html=1;exitX=0;exitY=1;exitDx=0;exitDy=0;entryX=0;entryY=1;entryDx=0;entryDy=0;curved=1;" parent="1" source="TxeS7D_PVPmR740Y7BxE-10" target="TxeS7D_PVPmR740Y7BxE-23" edge="1">
          <mxGeometry width="50" height="50" relative="1" as="geometry">
            <mxPoint x="93.42640687119268" y="793.3557287525383" as="sourcePoint" />
            <mxPoint x="268.5735931288073" y="783.3557287525381" as="targetPoint" />
            <Array as="points">
              <mxPoint x="211" y="810" />
              <mxPoint x="161" y="761.64" />
            </Array>
          </mxGeometry>
        </mxCell>
        <mxCell id="TxeS7D_PVPmR740Y7BxE-25" value="&lt;span style=&quot;color: rgb(0 , 0 , 0) ; font-family: &amp;#34;helvetica&amp;#34; ; font-size: 15px ; font-style: normal ; font-weight: 400 ; letter-spacing: normal ; text-align: center ; text-indent: 0px ; text-transform: none ; word-spacing: 0px ; background-color: rgb(248 , 249 , 250) ; display: inline ; float: none&quot;&gt;next_led = 16&#39;d0&lt;br&gt;&lt;/span&gt;" style="text;whiteSpace=wrap;html=1;rotation=30;" parent="1" vertex="1">
          <mxGeometry x="160" y="780" width="120" height="30" as="geometry" />
        </mxCell>
        <mxCell id="TxeS7D_PVPmR740Y7BxE-27" value="&lt;span style=&quot;color: rgb(0 , 0 , 0) ; font-family: &amp;#34;helvetica&amp;#34; ; font-size: 15px ; font-style: normal ; font-weight: 400 ; letter-spacing: normal ; text-align: center ; text-indent: 0px ; text-transform: none ; word-spacing: 0px ; background-color: rgb(248 , 249 , 250) ; display: inline ; float: none&quot;&gt;next_led = 16&#39;d65535&lt;/span&gt;" style="text;whiteSpace=wrap;html=1;rotation=-90;" parent="1" vertex="1">
          <mxGeometry x="40" y="580" width="160" height="30" as="geometry" />
        </mxCell>
        <mxCell id="sPhD7e8ujPRAf1kuhp1V-1" value="" style="endArrow=classic;html=1;exitX=0;exitY=0;exitDx=0;exitDy=0;entryX=1;entryY=0.5;entryDx=0;entryDy=0;curved=1;" parent="1" source="TxeS7D_PVPmR740Y7BxE-9" target="TxeS7D_PVPmR740Y7BxE-22" edge="1">
          <mxGeometry width="50" height="50" relative="1" as="geometry">
            <mxPoint x="346.9964068711927" y="720.7157287525383" as="sourcePoint" />
            <mxPoint x="522.1435931288072" y="710.7157287525381" as="targetPoint" />
            <Array as="points">
              <mxPoint x="531" y="660" />
            </Array>
          </mxGeometry>
        </mxCell>
        <mxCell id="bxx-TvzJjqoh5WmsUE4k-1" value="" style="endArrow=classic;html=1;entryX=1;entryY=0.5;entryDx=0;entryDy=0;curved=1;exitX=0.398;exitY=1.005;exitDx=0;exitDy=0;exitPerimeter=0;" edge="1" parent="1" source="TxeS7D_PVPmR740Y7BxE-7" target="J5iCN7HABDpWgJtPhztJ-2">
          <mxGeometry width="50" height="50" relative="1" as="geometry">
            <mxPoint x="220" y="485" as="sourcePoint" />
            <mxPoint x="345" y="407.5" as="targetPoint" />
            <Array as="points">
              <mxPoint x="320" y="500" />
            </Array>
          </mxGeometry>
        </mxCell>
        <mxCell id="bxx-TvzJjqoh5WmsUE4k-2" value="&lt;font style=&quot;font-size: 15px&quot;&gt;rst_n = 0&lt;/font&gt;" style="text;html=1;align=center;verticalAlign=middle;resizable=0;points=[];autosize=1;strokeColor=none;rotation=-45;" vertex="1" parent="1">
          <mxGeometry x="280" y="470" width="70" height="20" as="geometry" />
        </mxCell>
        <mxCell id="bxx-TvzJjqoh5WmsUE4k-3" value="" style="endArrow=classic;html=1;curved=1;exitX=0;exitY=0.5;exitDx=0;exitDy=0;" edge="1" parent="1" source="TxeS7D_PVPmR740Y7BxE-8">
          <mxGeometry width="50" height="50" relative="1" as="geometry">
            <mxPoint x="230" y="495" as="sourcePoint" />
            <mxPoint x="260" y="533" as="targetPoint" />
            <Array as="points">
              <mxPoint x="460" y="460" />
            </Array>
          </mxGeometry>
        </mxCell>
        <mxCell id="bxx-TvzJjqoh5WmsUE4k-4" value="&lt;font style=&quot;font-size: 15px&quot;&gt;rst_n = 0&lt;/font&gt;" style="text;html=1;align=center;verticalAlign=middle;resizable=0;points=[];autosize=1;strokeColor=none;rotation=10;" vertex="1" parent="1">
          <mxGeometry x="435" y="490" width="70" height="20" as="geometry" />
        </mxCell>
        <mxCell id="bxx-TvzJjqoh5WmsUE4k-5" value="" style="endArrow=classic;html=1;curved=1;exitX=1;exitY=0;exitDx=0;exitDy=0;entryX=0.915;entryY=0.788;entryDx=0;entryDy=0;entryPerimeter=0;" edge="1" parent="1" source="TxeS7D_PVPmR740Y7BxE-9" target="J5iCN7HABDpWgJtPhztJ-2">
          <mxGeometry width="50" height="50" relative="1" as="geometry">
            <mxPoint x="590" y="690" as="sourcePoint" />
            <mxPoint x="260" y="544" as="targetPoint" />
            <Array as="points">
              <mxPoint x="510" y="460" />
            </Array>
          </mxGeometry>
        </mxCell>
        <mxCell id="bxx-TvzJjqoh5WmsUE4k-7" value="&lt;font style=&quot;font-size: 15px&quot;&gt;rst_n = 0&lt;/font&gt;" style="text;html=1;align=center;verticalAlign=middle;resizable=0;points=[];autosize=1;strokeColor=none;rotation=30;" vertex="1" parent="1">
          <mxGeometry x="460" y="540" width="70" height="20" as="geometry" />
        </mxCell>
        <mxCell id="bxx-TvzJjqoh5WmsUE4k-10" value="" style="endArrow=classic;html=1;curved=1;exitX=0.5;exitY=0;exitDx=0;exitDy=0;" edge="1" parent="1" source="TxeS7D_PVPmR740Y7BxE-22">
          <mxGeometry width="50" height="50" relative="1" as="geometry">
            <mxPoint x="155.45809314432995" y="669.0906075556702" as="sourcePoint" />
            <mxPoint x="240" y="560" as="targetPoint" />
            <Array as="points">
              <mxPoint x="350" y="550" />
            </Array>
          </mxGeometry>
        </mxCell>
        <mxCell id="bxx-TvzJjqoh5WmsUE4k-11" value="&lt;font style=&quot;font-size: 15px&quot;&gt;rst_n = 0&lt;/font&gt;" style="text;html=1;align=center;verticalAlign=middle;resizable=0;points=[];autosize=1;strokeColor=none;rotation=15;" vertex="1" parent="1">
          <mxGeometry x="291" y="565" width="70" height="20" as="geometry" />
        </mxCell>
        <mxCell id="bxx-TvzJjqoh5WmsUE4k-12" value="" style="endArrow=classic;html=1;exitX=0.316;exitY=0.97;exitDx=0;exitDy=0;entryX=0.103;entryY=0.227;entryDx=0;entryDy=0;curved=1;entryPerimeter=0;exitPerimeter=0;" edge="1" parent="1" source="TxeS7D_PVPmR740Y7BxE-10" target="J5iCN7HABDpWgJtPhztJ-2">
          <mxGeometry width="50" height="50" relative="1" as="geometry">
            <mxPoint x="295.45809314432995" y="850.9093924443298" as="sourcePoint" />
            <mxPoint x="155.45809314432995" y="735.9093924443298" as="targetPoint" />
            <Array as="points">
              <mxPoint x="190" y="870" />
              <mxPoint x="10" y="690" />
            </Array>
          </mxGeometry>
        </mxCell>
        <mxCell id="bxx-TvzJjqoh5WmsUE4k-13" value="&lt;font style=&quot;font-size: 15px&quot;&gt;rst_n = 0&lt;/font&gt;" style="text;html=1;align=center;verticalAlign=middle;resizable=0;points=[];autosize=1;strokeColor=none;rotation=45;" vertex="1" parent="1">
          <mxGeometry x="61" y="734.5" width="70" height="20" as="geometry" />
        </mxCell>
      </root>
    </mxGraphModel>
  </diagram>
</mxfile>
